<svg xmlns="http://www.w3.org/2000/svg" viewBox="0 0 1000 1000"><defs><style>.cls-1{fill:none;}.cls-2{fill:#ffb400;}.cls-3{fill:#50ee9a;}.cls-4{opacity:0.15;}</style></defs><g id="Layer_2" data-name="Layer 2"><g id="Layer_1-2" data-name="Layer 1"><rect class="cls-1" width="1000" height="1000"/><path class="cls-2" d="M718.69,500a9.93,9.93,0,0,1-.1,1.72,41.78,41.78,0,0,1-12.23,28.13L392.49,843.65a42.07,42.07,0,0,1-59.59,0l-39.28-39.23a42.22,42.22,0,0,1,0-59.64l215-214.95a41.78,41.78,0,0,0,12.23-28.13A9.93,9.93,0,0,0,521,500a42,42,0,0,0-12.33-29.79l-215-215a42.16,42.16,0,0,1,0-59.59l39.28-39.28a42.16,42.16,0,0,1,59.59,0L706.36,470.19A42,42,0,0,1,718.69,500Z"/><path class="cls-3" d="M718.71,500a42.05,42.05,0,0,1-12.34,29.81L392.51,843.66a42.13,42.13,0,0,1-59.61,0l-39.27-39.25a42.18,42.18,0,0,1,0-59.62l215-215a42.15,42.15,0,0,0,0-59.62l-215-215a42.17,42.17,0,0,1,0-59.61l39.27-39.27a42.15,42.15,0,0,1,59.61,0L706.37,470.19A42,42,0,0,1,718.71,500Z"/><path class="cls-4" d="M718.59,501.7a41.78,41.78,0,0,1-12.23,28.13L392.49,843.65a42.07,42.07,0,0,1-59.59,0l-39.28-39.23a42.22,42.22,0,0,1,0-59.64l215-214.95a41.78,41.78,0,0,0,12.23-28.13Z"/><path class="cls-3" d="M616.05,790.88a103.65,103.65,0,0,1-3.35,27.51,58.65,58.65,0,0,1-9.78,20.48,42.87,42.87,0,0,1-15.71,12.75,52.52,52.52,0,0,1-40.21.76A37.94,37.94,0,0,1,532,841q-6.32-7.79-9.84-19.91t-3.53-29A102.36,102.36,0,0,1,522,764.52,59.73,59.73,0,0,1,531.82,744a42.12,42.12,0,0,1,15.75-12.75,52.52,52.52,0,0,1,40.21-.76,37.72,37.72,0,0,1,14.94,11.36q6.25,7.74,9.79,19.86T616.05,790.88Zm-73.92.38v3.58a30.19,30.19,0,0,0,.19,3.4l46.8-33.81q-3.35-9.45-8.84-14a19.65,19.65,0,0,0-12.94-4.54,19.17,19.17,0,0,0-9.93,2.72,23.4,23.4,0,0,0-8,8.36,48.5,48.5,0,0,0-5.35,14.13A90.52,90.52,0,0,0,542.13,791.26Zm50.42.39c0-1.09,0-2.18-.09-3.3s-.1-2.18-.1-3.2l-46.51,33.62q3.06,9.26,8.6,13.75A19.88,19.88,0,0,0,567.34,837a19.07,19.07,0,0,0,10-2.77,23.84,23.84,0,0,0,8-8.36,46.84,46.84,0,0,0,5.3-14.13A92.68,92.68,0,0,0,592.55,791.65Z"/><path class="cls-3" d="M635.62,853.82V833.09h31.81V752.87l-27.7,15.28-7.64-19,39.63-20.92H691.3V833.09h27.41v20.73Z"/></g></g></svg>