<svg id="placeholder" xmlns="http://www.w3.org/2000/svg" viewBox="0 0 809.46 376.34">
	<path d="M265.88,513.06l13,16.22a9.09,9.09,0,0,1,2.14,4.56c.29,3-.68,5.44-3.21,7a6.59,6.59,0,0,1-3.4,1.06,7,7,0,0,1-4-1.36,16.14,16.14,0,0,1-1.36-1.16c-5.34-5.83-10.78-11.36-15.54-17.58-.38-.58-.87-1.06-1.45-1.84v1.16a66.07,66.07,0,0,1-.88,12.43,7.09,7.09,0,0,1-6.11,6,7.33,7.33,0,0,1-7.19-4.56,15.54,15.54,0,0,1-1.07-5.92c-.68-14.86-1.26-29.72-.29-44.58a57.24,57.24,0,0,1,1.85-10.77c1.45-5.15,6.21-7.29,11.16-7.48a36.79,36.79,0,0,1,15.54,2.33,23.74,23.74,0,0,1,12.24,10.2c4,6.79,3.59,14,.48,21a27.24,27.24,0,0,1-11.36,12.91C266.27,512.77,266.17,512.87,265.88,513.06ZM251.7,502c5.63-1.94,11.46-5.73,12.91-11.94a4.81,4.81,0,0,0-1.55-4.95,13.21,13.21,0,0,0-6.8-3.11c-1.26-.2-2.62-.29-4-.49C251.5,488.4,251.8,495.1,251.7,502Z" transform="translate(-236.04 -165.57)" />
	<path d="M322.59,527.05a6,6,0,0,1-4.18,5.53A36,36,0,0,1,303.65,534c-10.39-1.17-17.86-8.35-19.81-18.55a24.44,24.44,0,0,1,4.86-20.68c4.08-5.25,12.24-9,18.94-9a18.28,18.28,0,0,1,4.56.58c7.48,1.84,11.26,7.86,9.61,15.54-2.13,9.12-11.26,15.92-20.2,17.67a4.44,4.44,0,0,1-.67.29,10,10,0,0,0,5.24,1.65,24.8,24.8,0,0,0,8.06-.68,7.69,7.69,0,0,1,4.66.29A6,6,0,0,1,322.59,527.05Zm-25.54-19.42A16.12,16.12,0,0,0,308.41,502a2.67,2.67,0,0,0,.59-1c1.16-2.62.77-2.72-1.66-2.62a11.33,11.33,0,0,0-11,9.13.35.35,0,0,1,.2.1Z" transform="translate(-236.04 -165.57)" />
	<path d="M354.93,532.49a21.87,21.87,0,0,1-11.65,3.78c-6,0-14.28-3.88-17-9.42a6.31,6.31,0,0,1,3.59-9,6.1,6.1,0,0,1,6.41,1.75c1.65,1.65,4.47,3.4,6.9,3.4a8.67,8.67,0,0,0,4.56-1.46,2,2,0,0,0,.49-2.62,13.15,13.15,0,0,0-2-2.62c-1.07-1-2.33-1.75-3.5-2.72-2-1.85-4.27-3.69-6.11-5.73-6.8-7.19-3.79-16.8,1.74-21.17a20,20,0,0,1,12.82-4.56,24,24,0,0,1,4.47.38,6.27,6.27,0,0,1,4.56,9.23,6.11,6.11,0,0,1-5.53,3.2c-2,0-6.9.1-8.26,1.85a1.64,1.64,0,0,0-.09,2.62,61.29,61.29,0,0,0,5.43,4.57c3.6,2.62,6.7,5.53,8.65,9.71A14.79,14.79,0,0,1,354.93,532.49Z" transform="translate(-236.04 -165.57)" />
	<path d="M408.82,506.27c-.09,9-3.39,16.41-10.78,21.75-3.88,2.72-8.15,4.47-12.91,4.08-8.45-.59-14.28-5-17.48-12.82-2.14-5.44-2.14-11.07-1-16.7A27.89,27.89,0,0,1,372.51,490c4.75-5.82,11-7.48,18.16-6.5,6.21.87,11,4.17,14.66,9.12C408.14,496.36,408.53,501.7,408.82,506.27Zm-13.11-3.11a5.79,5.79,0,0,0-1.74-4.08,11.34,11.34,0,0,0-6.22-2.72c-3.2-.29-4.76.58-6.21,3.21a22.28,22.28,0,0,0-2.53,9.22,13.07,13.07,0,0,0,1.36,6.6,6.11,6.11,0,0,0,5.73,3.5c4.47,0,8.16-4,9.32-8.06A18.57,18.57,0,0,0,395.71,503.16Z" transform="translate(-236.04 -165.57)" />
	<path d="M456.41,523a5.5,5.5,0,0,1-4.47,4.17,5.58,5.58,0,0,1-5.83-1.84c-.48-.58-1-1.26-1.36-1.75a36.48,36.48,0,0,1-5.14,3.79,14.89,14.89,0,0,1-7.38,1.84c-10.2,0-16.9-7.38-18.26-17.09-.87-6.5-.48-13.11-.39-19.61a36.06,36.06,0,0,1,.49-5.64,6,6,0,0,1,6.41-4.85,6,6,0,0,1,5.82,5.83c.2,3.59.1,7.18.1,10.77A75.54,75.54,0,0,0,427,511c.59,2.82,2,4.76,5,4.76a4.55,4.55,0,0,0,4.28-3.4,76.49,76.49,0,0,0,3.59-17.48,37.56,37.56,0,0,0,.1-5.73,15.35,15.35,0,0,1,.29-3.68,6.4,6.4,0,0,1,12.72,1c.19,3.39.19,6.79.48,10.19.39,4.27,1,8.55,1.56,12.92.48,3.3,1.07,6.6,1.55,10A10,10,0,0,1,456.41,523Z" transform="translate(-236.04 -165.57)" />
	<path d="M490.59,497.72c-1.07.29-2.23.49-3.3.68a14.24,14.24,0,0,0-8.45,5c-3.59,4.08-3.59,4.08-3.4,9.52.29,4.37.59,8.64.88,13a10.69,10.69,0,0,1-.49,4.57,6.47,6.47,0,0,1-6,3.78,6.11,6.11,0,0,1-5.73-4.76,47.89,47.89,0,0,1-1.07-7.28,252.46,252.46,0,0,1-.48-28.45c.09-1.55,0-3,0-4.57a7,7,0,0,1,1.45-4.95A5.9,5.9,0,0,1,470.2,482c4.08.87,4.85,4.18,5.24,7.77.2-.1.29-.1.39-.2,3.79-2.62,8.16-3.39,12.53-3.88a6.33,6.33,0,0,1,6.8,4.95A6.2,6.2,0,0,1,490.59,497.72Z" transform="translate(-236.04 -165.57)" />
	<path d="M507.1,510.54c-1.07,3.88.29,7.09,2.53,10.1a4.9,4.9,0,0,0,3.59,1.55,16.13,16.13,0,0,0,9.42-2.72,6.4,6.4,0,0,1,3.88-1.26,5.65,5.65,0,0,1,4.08,1.65,6.09,6.09,0,0,1,.68,8.06c-3.4,4.66-12.14,6.9-17.48,7.09-7.18-.19-12.62-3.11-16.22-9.23a26.24,26.24,0,0,1-3.78-12.23c-.2-12.92,11.94-26.8,25.05-26.8a19.57,19.57,0,0,1,10.88,3.49,6.67,6.67,0,0,1,3.1,7.09,6.06,6.06,0,0,1-5.92,4.66,8.86,8.86,0,0,1-4.37-1.36,8.89,8.89,0,0,0-3.69-.87C513.61,499.76,508.36,506,507.1,510.54Z" transform="translate(-236.04 -165.57)" />
	<path d="M575.86,527.05a6,6,0,0,1-4.18,5.53A36,36,0,0,1,556.92,534c-10.39-1.17-17.87-8.35-19.81-18.55A24.44,24.44,0,0,1,542,494.81c4.07-5.25,12.23-9,18.93-9a18.28,18.28,0,0,1,4.56.58c7.48,1.84,11.27,7.86,9.62,15.54-2.14,9.12-11.27,15.92-20.2,17.67a4.61,4.61,0,0,1-.68.29,10,10,0,0,0,5.24,1.65,24.8,24.8,0,0,0,8.06-.68,7.72,7.72,0,0,1,4.67.29A6.06,6.06,0,0,1,575.86,527.05Zm-25.54-19.42A16.12,16.12,0,0,0,561.68,502a2.63,2.63,0,0,0,.58-1c1.17-2.62.78-2.72-1.65-2.62a11.32,11.32,0,0,0-11,9.13.35.35,0,0,1,.19.1Z" transform="translate(-236.04 -165.57)" />
	<path d="M624,502.19c.1,6.31.78,13.88,3.5,19.71.87,1.85,1.84,2,3.59,1.55a8,8,0,0,0,5-4.66,45.12,45.12,0,0,0,3.21-12.91c1.16-10,.87-20.1.58-30.2,0-1.94-.1-3.89.78-5.73a6.44,6.44,0,0,1,5.82-3.79,6.74,6.74,0,0,1,5.83,3.69c2.23,4,2.43,11.07,2.43,15.64q0,9.6-.29,19.22A60.08,60.08,0,0,1,649.27,527c-3.69,8-9.81,11.94-17.77,13.21-6.12,1-10.88-1.85-14.86-6.51-3-3.3-4.46-7.57-5.53-11.94a81.31,81.31,0,0,1-2.33-23.7c.29-7.77,1-15.44,1.45-23.11a14.65,14.65,0,0,1,1-4.08,6.48,6.48,0,0,1,6.5-4.17c6,.58,6.41,6.6,6.6,11.26C624.41,481.5,623.93,497.72,624,502.19Z" transform="translate(-236.04 -165.57)" />
	<path d="M701.81,526.17a6.38,6.38,0,0,1-6.41,6c-4,0-6.22-3.59-6.41-7.18,0-3.21.19-6.51,0-9.71-.1-3.6-.49-7.19-.87-10.78a13.72,13.72,0,0,0-1.46-3.5,1.5,1.5,0,0,0-1.84-1,18.27,18.27,0,0,0-10.3,5.15,2.32,2.32,0,0,0-.48,1.36c.19,5.82.19,11.65.58,17.48.19,4.08-2.72,7.18-6.22,7.18a6.17,6.17,0,0,1-6.21-5.73c-.39-3.49-.78-7-.87-10.48,0-8.26.09-16.42.09-24.67a9.13,9.13,0,0,1,1.07-4.17,6.14,6.14,0,0,1,6.6-2.92,6.58,6.58,0,0,1,5,6.51c2.24-.68,4.37-1.65,6.61-2.14a16.36,16.36,0,0,1,4.27-.48c6.8,0,12.24,4.07,14.86,11.26A44.57,44.57,0,0,1,702,509.08,100.45,100.45,0,0,1,701.81,526.17Z" transform="translate(-236.04 -165.57)" />
	<path d="M750.46,533.46a5.94,5.94,0,0,1-3.11.77c-4.08,0-5.82-3.11-6.7-6.5-.58.39-1.07.68-1.55,1-4.66,3.2-9.71,5.73-15.44,5.73A15.7,15.7,0,0,1,710,526.76a21.2,21.2,0,0,1-2.92-17.09c2.43-10.59,11.85-22.92,23.7-22.92a23.4,23.4,0,0,1,6.12.87,1.66,1.66,0,0,0,1.16-.19,6.82,6.82,0,0,1,3.5-1,6.21,6.21,0,0,1,6.11,5.43c1.75,11.37,3.79,22.73,5.93,34.09A6.85,6.85,0,0,1,750.46,533.46Zm-12.92-20.79c-.48-3.39-1-6.7-1.45-10.09-.29-2.14-.29-2.14-2.53-2.63a12.23,12.23,0,0,0-2.62-.29c-6,0-11.17,9.81-11.55,15a9.13,9.13,0,0,0,1.36,4.76,3.17,3.17,0,0,0,3.78,1.84c4.27-.39,10.39-4.56,12.82-7.87A1.7,1.7,0,0,0,737.54,512.67Z" transform="translate(-236.04 -165.57)" />
	<path d="M794.84,488.69a30.06,30.06,0,0,1-1.16,3.88c-2.43,5.54-4.57,11.27-7.48,16.61a51.9,51.9,0,0,0-2.43,5.24,86.63,86.63,0,0,1-7,12.43,7.14,7.14,0,0,1-4.76,3.4,6.47,6.47,0,0,1-7-3,23,23,0,0,1-1-2.33,174.24,174.24,0,0,1-7.38-27.77c-.58-2.92-1.26-5.83-1.85-8.64a6.35,6.35,0,0,1,4.47-7.29,6,6,0,0,1,7.38,4.08c1.17,3.69,1.94,7.48,2.82,11.27,1,4.07,1.74,8.06,2.72,12,.09,0,.19.09.29.09a13.21,13.21,0,0,1,.77-1.74l6.12-13.11c1.17-2.72,2.23-5.44,3.3-8.16s2.72-4.56,5.73-4.76C792.71,480.53,795.81,484.42,794.84,488.69Z" transform="translate(-236.04 -165.57)" />
	<path d="M838.35,533.46a5.94,5.94,0,0,1-3.11.77c-4.08,0-5.82-3.11-6.7-6.5-.58.39-1.07.68-1.55,1-4.66,3.2-9.71,5.73-15.44,5.73a15.7,15.7,0,0,1-13.69-7.67,21.16,21.16,0,0,1-2.92-17.09c2.43-10.59,11.85-22.92,23.7-22.92a23.27,23.27,0,0,1,6.11.87,1.69,1.69,0,0,0,1.17-.19,6.8,6.8,0,0,1,3.5-1,6.21,6.21,0,0,1,6.11,5.43c1.75,11.37,3.79,22.73,5.93,34.09A6.85,6.85,0,0,1,838.35,533.46Zm-12.92-20.79c-.48-3.39-1-6.7-1.45-10.09-.29-2.14-.29-2.14-2.53-2.63a12.3,12.3,0,0,0-2.62-.29c-6,0-11.17,9.81-11.56,15a9.22,9.22,0,0,0,1.36,4.76,3.19,3.19,0,0,0,3.79,1.84c4.27-.39,10.39-4.56,12.82-7.87A1.7,1.7,0,0,0,825.43,512.67Z" transform="translate(-236.04 -165.57)" />
	<path d="M845.83,478.49a6.45,6.45,0,0,1,6.41-6.31,6.36,6.36,0,0,1-.2,12.72A6.36,6.36,0,0,1,845.83,478.49Zm14,46a9.41,9.41,0,0,1-.48,3.21,6.1,6.1,0,0,1-11.85-.88c-.29-2.62-.39-5.34-.49-8-.09-7.67-.19-15.34-.29-22.92a6.87,6.87,0,0,1,1.17-4.08A6,6,0,0,1,859,494.52C859.33,499.86,859.81,519.86,859.81,524.52Z" transform="translate(-236.04 -165.57)" />
	<path d="M875.93,531.9a6.28,6.28,0,0,1-7.47-4.08,20.21,20.21,0,0,1-1.27-7.18c-1-14.86-1.07-29.81-.87-44.77,0-2.52.1-4.95.19-7.48,0-3.78,2.33-7,6.22-7a6.26,6.26,0,0,1,6.12,6c.19,2.53.19,5.05.19,7.58,0,6.79.87,40,1.55,49.81A6.65,6.65,0,0,1,875.93,531.9Z" transform="translate(-236.04 -165.57)" />
	<path d="M929.63,533.46a5.93,5.93,0,0,1-3.1.77c-4.08,0-5.83-3.11-6.7-6.5-.59.39-1.07.68-1.56,1-4.66,3.2-9.71,5.73-15.44,5.73a15.71,15.71,0,0,1-13.69-7.67,21.16,21.16,0,0,1-2.91-17.09c2.42-10.59,11.84-22.92,23.69-22.92a23.4,23.4,0,0,1,6.12.87,1.66,1.66,0,0,0,1.16-.19,6.85,6.85,0,0,1,3.5-1,6.22,6.22,0,0,1,6.12,5.43c1.75,11.37,3.78,22.73,5.92,34.09A6.84,6.84,0,0,1,929.63,533.46Zm-12.91-20.79-1.46-10.09c-.29-2.14-.29-2.14-2.52-2.63a12.37,12.37,0,0,0-2.62-.29c-6,0-11.17,9.81-11.56,15a9.13,9.13,0,0,0,1.36,4.76,3.18,3.18,0,0,0,3.79,1.84c4.27-.39,10.39-4.56,12.81-7.87A1.71,1.71,0,0,0,916.72,512.67Z" transform="translate(-236.04 -165.57)" />
	<path d="M964.4,536.37a24.91,24.91,0,0,1-5.92.68,30.19,30.19,0,0,1-9.23-1.55,4.79,4.79,0,0,0-1.16-.2,6.32,6.32,0,0,1-7.09-4.85,73,73,0,0,1-1.94-11.27,225.47,225.47,0,0,1-.88-28.06,101.43,101.43,0,0,1,1.75-18,15.71,15.71,0,0,1,1.84-4.56,5.83,5.83,0,0,1,6.32-2.72,5.6,5.6,0,0,1,4.66,4.17,6.33,6.33,0,0,1,.09,3.31,36.25,36.25,0,0,0-1.35,9.12c-.3,3.11-.39,6.22-.59,9.33,0,.19.1.48.1.68,1.84-.49,3.69-1.07,5.63-1.46a37.18,37.18,0,0,1,4.47-.39c10.87,0,17.77,7.77,20,17.87A23.43,23.43,0,0,1,964.4,536.37Zm1.46-31.27a4.81,4.81,0,0,0-3.4-1.84c-4.18-.59-7.67,1.06-11.07,3.1-.2.1-.29.49-.29.78,0,1.07,0,2.14.09,3.59s.3,3.4.39,5.34.49,3.89.68,5.83c.1.39.2,1,.49,1.17a4.47,4.47,0,0,0,2.81,1.26c1.27,0,2.53.09,3.79.09a10.76,10.76,0,0,0,9.42-7.38C969.94,512.48,968.67,508.6,965.86,505.1Z" transform="translate(-236.04 -165.57)" />
	<path d="M996.45,531.9a6.29,6.29,0,0,1-7.48-4.08,20.2,20.2,0,0,1-1.26-7.18c-1-14.86-1.07-29.81-.88-44.77,0-2.52.1-4.95.2-7.48,0-3.78,2.33-7,6.21-7a6.26,6.26,0,0,1,6.12,6c.19,2.53.19,5.05.19,7.58,0,6.79.88,40,1.56,49.81C1001.3,528.12,999.46,531.12,996.45,531.9Z" transform="translate(-236.04 -165.57)" />
	<path d="M1045.49,527.05a6,6,0,0,1-4.18,5.53,36,36,0,0,1-14.76,1.46c-10.39-1.17-17.87-8.35-19.81-18.55a24.44,24.44,0,0,1,4.86-20.68c4.08-5.25,12.23-9,18.93-9a18.35,18.35,0,0,1,4.57.58c7.47,1.84,11.26,7.86,9.61,15.54-2.14,9.12-11.26,15.92-20.2,17.67a4.61,4.61,0,0,1-.68.29,10.07,10.07,0,0,0,5.25,1.65,24.85,24.85,0,0,0,8.06-.68,7.69,7.69,0,0,1,4.66.29A6.06,6.06,0,0,1,1045.49,527.05ZM1020,507.63a16.12,16.12,0,0,0,11.36-5.64,2.63,2.63,0,0,0,.58-1c1.17-2.62.78-2.72-1.65-2.62a11.32,11.32,0,0,0-11,9.13.31.31,0,0,1,.19.1Z" transform="translate(-236.04 -165.57)" />
	<path d="M492.36,397c2.31-34.53,5.11-68.52,15.91-101.25a96.58,96.58,0,0,1,13.56-27.05c12.2-16.68,31.61-21.57,50.35-12.35a105.18,105.18,0,0,1,27.31,19.08c3.72,3.64,7,4.93,12.5,3.55a113.45,113.45,0,0,1,56.18,0c5.49,1.39,8.79,0,12.51-3.58a107.85,107.85,0,0,1,27.43-18.93c18.64-9.17,37.95-4.25,50.16,12.67,14.94,20.71,19.26,45.1,23.45,69.42,3.51,20.33,4.6,40.94,5.88,61.5.84,13.49-6.26,22.83-17.77,24-11.15,1.09-19.71-7.32-20.72-21.15-2-26.95-3.11-54-9.54-80.41a130.75,130.75,0,0,0-9.13-25.67c-2.53-5.29-5.08-6.94-10.66-3-11.47,8-22.41,16.44-29.06,29.07-2.23,4.22-4,4.93-8.37,2.54-27.91-15.27-56.09-15.43-84.08-.23-4.59,2.49-6.67,2.19-9.18-2.58-6.47-12.3-17.11-20.58-28.25-28.48-5.84-4.15-8.56-2.6-11.42,3.07-8.18,16.25-11.78,33.77-14,51.54C533.3,365.77,532,383,530.9,400.17c-1,15.69-7.88,24.3-20.14,23.76-12-.53-18.83-9.92-18.41-25.38C492.37,397.87,492.36,397.2,492.36,397Z" transform="translate(-236.04 -165.57)" />
	<path d="M564,203.9a19.16,19.16,0,1,1,18.48-19.84A18.95,18.95,0,0,1,564,203.9Z" transform="translate(-236.04 -165.57)" />
	<path d="M697.64,184.37a19,19,0,1,1,18.83,19.53A19.06,19.06,0,0,1,697.64,184.37Z" transform="translate(-236.04 -165.57)" />
	<path d="M639.89,165.57c10.62-.12,19,8.4,19,19.28a18.81,18.81,0,1,1-37.61.38C621.07,174.32,629.25,165.69,639.89,165.57Z" transform="translate(-236.04 -165.57)" />
	<path d="M611.34,395.67a19.1,19.1,0,1,1-38.18-1.14,19.22,19.22,0,0,1,19.12-18.32C602.75,376.25,611.62,385.31,611.34,395.67Z" transform="translate(-236.04 -165.57)" />
	<path d="M707,395.63a19.09,19.09,0,1,1-19-19.41A19.35,19.35,0,0,1,707,395.63Z" transform="translate(-236.04 -165.57)" />
</svg>
